<?xml version="1.0" encoding="us-ascii" standalone="no"?><svg xmlns="http://www.w3.org/2000/svg" xmlns:xlink="http://www.w3.org/1999/xlink" contentStyleType="text/css" height="582px" preserveAspectRatio="none" style="width:1531px;height:582px;background:#FFFFFF;" version="1.1" viewBox="0 0 1531 582" width="1531px" zoomAndPan="magnify"><defs/><g><!--class Poligono--><g id="elem_Poligono"><rect codeLine="1" fill="#F1F1F1" height="80.9766" id="Poligono" rx="2.5" ry="2.5" style="stroke:#181818;stroke-width:0.5;" width="513" x="7" y="494.23"/><ellipse cx="228.75" cy="510.23" fill="#ADD1B2" rx="11" ry="11" style="stroke:#181818;stroke-width:1.0;"/><path d="M231.2231,516.3731 Q230.6421,516.6719 230.0029,516.8213 Q229.3638,516.9707 228.6582,516.9707 Q226.1514,516.9707 224.8315,515.3189 Q223.5117,513.667 223.5117,510.5459 Q223.5117,507.4165 224.8315,505.7647 Q226.1514,504.1128 228.6582,504.1128 Q229.3638,504.1128 230.0112,504.2622 Q230.6587,504.4116 231.2231,504.7105 L231.2231,507.4331 Q230.5923,506.8521 229.9988,506.5823 Q229.4053,506.3125 228.7744,506.3125 Q227.4297,506.3125 226.7449,507.3792 Q226.0601,508.4458 226.0601,510.5459 Q226.0601,512.6377 226.7449,513.7044 Q227.4297,514.771 228.7744,514.771 Q229.4053,514.771 229.9988,514.5012 Q230.5923,514.2315 231.2231,513.6504 Z " fill="#000000"/><text fill="#000000" font-family="sans-serif" font-size="14" lengthAdjust="spacing" textLength="61" x="249.25" y="515.521">Poligono</text><line style="stroke:#181818;stroke-width:0.5;" x1="8" x2="519" y1="526.23" y2="526.23"/><line style="stroke:#181818;stroke-width:0.5;" x1="8" x2="519" y1="534.23" y2="534.23"/><ellipse cx="18" cy="547.9741" fill="#84BE84" rx="3" ry="3" style="stroke:#038048;stroke-width:1.0;"/><text fill="#000000" font-family="sans-serif" font-size="14" lengthAdjust="spacing" textLength="487" x="27" y="551.7652">Poligono(_paiRef:Objeto, _rotulo:char, pontosPoligono:List&lt;Ponto4D&gt;)</text><ellipse cx="18" cy="564.4624" fill="#84BE84" rx="3" ry="3" style="stroke:#038048;stroke-width:1.0;"/><text fill="#000000" font-family="sans-serif" font-size="14" lengthAdjust="spacing" textLength="196" x="27" y="568.2534">&#171;override&#187; ToString() : string</text></g><!--class Objeto--><g id="elem_Objeto"><rect codeLine="1" fill="#F1F1F1" height="427.2305" id="Objeto" rx="2.5" ry="2.5" style="stroke:#181818;stroke-width:0.5;" width="442" x="395.5" y="7"/><ellipse cx="589.25" cy="23" fill="#ADD1B2" rx="11" ry="11" style="stroke:#181818;stroke-width:1.0;"/><path d="M591.7231,29.1431 Q591.1421,29.4419 590.5029,29.5913 Q589.8638,29.7407 589.1582,29.7407 Q586.6514,29.7407 585.3315,28.0889 Q584.0117,26.437 584.0117,23.3159 Q584.0117,20.1865 585.3315,18.5347 Q586.6514,16.8828 589.1582,16.8828 Q589.8638,16.8828 590.5112,17.0322 Q591.1587,17.1816 591.7231,17.4805 L591.7231,20.2031 Q591.0923,19.6221 590.4988,19.3523 Q589.9053,19.0825 589.2744,19.0825 Q587.9297,19.0825 587.2449,20.1492 Q586.5601,21.2158 586.5601,23.3159 Q586.5601,25.4077 587.2449,26.4744 Q587.9297,27.541 589.2744,27.541 Q589.9053,27.541 590.4988,27.2712 Q591.0923,27.0015 591.7231,26.4204 Z " fill="#000000"/><text fill="#000000" font-family="sans-serif" font-size="14" lengthAdjust="spacing" textLength="46" x="609.75" y="28.291">Objeto</text><line style="stroke:#181818;stroke-width:0.5;" x1="396.5" x2="836.5" y1="39" y2="39"/><ellipse cx="406.5" cy="52.7441" fill="none" rx="3" ry="3" style="stroke:#038048;stroke-width:1.0;"/><text fill="#000000" font-family="sans-serif" font-size="14" lengthAdjust="spacing" textLength="127" x="415.5" y="56.5352">Rotulo : char &#171;get&#187;</text><ellipse cx="406.5" cy="69.2324" fill="none" rx="3" ry="3" style="stroke:#038048;stroke-width:1.0;"/><text fill="#000000" font-family="sans-serif" font-size="14" lengthAdjust="spacing" textLength="245" x="415.5" y="73.0234">PrimitivaTamanho : float &#171;get&#187; &#171;set&#187;</text><line style="stroke:#181818;stroke-width:0.5;" x1="396.5" x2="836.5" y1="79.9766" y2="79.9766"/><ellipse cx="406.5" cy="93.7207" fill="#84BE84" rx="3" ry="3" style="stroke:#038048;stroke-width:1.0;"/><text fill="#000000" font-family="sans-serif" font-size="14" lengthAdjust="spacing" textLength="91" x="415.5" y="97.5117">Bbox() : BBox</text><ellipse cx="406.5" cy="110.209" fill="#84BE84" rx="3" ry="3" style="stroke:#038048;stroke-width:1.0;"/><text fill="#000000" font-family="sans-serif" font-size="14" lengthAdjust="spacing" textLength="239" x="415.5" y="114">TrocaEixoRotacao(eixo:char) : void</text><ellipse cx="406.5" cy="126.6973" fill="#84BE84" rx="3" ry="3" style="stroke:#038048;stroke-width:1.0;"/><text fill="#000000" font-family="sans-serif" font-size="14" lengthAdjust="spacing" textLength="383" x="415.5" y="130.4883">Objeto(_paiRef:Objeto, _rotulo:char, objetoFilho:Objeto)</text><ellipse cx="406.5" cy="143.1855" fill="#84BE84" rx="3" ry="3" style="stroke:#038048;stroke-width:1.0;"/><text fill="#000000" font-family="sans-serif" font-size="14" lengthAdjust="spacing" textLength="159" x="415.5" y="146.9766">ObjetoAtualizar() : void</text><ellipse cx="406.5" cy="159.6738" fill="#84BE84" rx="3" ry="3" style="stroke:#038048;stroke-width:1.0;"/><text fill="#000000" font-family="sans-serif" font-size="14" lengthAdjust="spacing" textLength="325" x="415.5" y="163.4648">Desenhar(matrizGrafo:Transformacao4D) : void</text><ellipse cx="406.5" cy="176.1621" fill="#84BE84" rx="3" ry="3" style="stroke:#038048;stroke-width:1.0;"/><text fill="#000000" font-family="sans-serif" font-size="14" lengthAdjust="spacing" textLength="232" x="415.5" y="179.9531">FilhoAdicionar(filho:Objeto) : void</text><ellipse cx="406.5" cy="192.6504" fill="#84BE84" rx="3" ry="3" style="stroke:#038048;stroke-width:1.0;"/><text fill="#000000" font-family="sans-serif" font-size="14" lengthAdjust="spacing" textLength="176" x="415.5" y="196.4414">PontosId(id:int) : Ponto4D</text><ellipse cx="406.5" cy="209.1387" fill="#84BE84" rx="3" ry="3" style="stroke:#038048;stroke-width:1.0;"/><text fill="#000000" font-family="sans-serif" font-size="14" lengthAdjust="spacing" textLength="250" x="415.5" y="212.9297">PontosAdicionar(pto:Ponto4D) : void</text><ellipse cx="406.5" cy="225.627" fill="#84BE84" rx="3" ry="3" style="stroke:#038048;stroke-width:1.0;"/><text fill="#000000" font-family="sans-serif" font-size="14" lengthAdjust="spacing" textLength="314" x="415.5" y="229.418">PontosAlterar(pto:Ponto4D, posicao:int) : void</text><ellipse cx="406.5" cy="242.1152" fill="#84BE84" rx="3" ry="3" style="stroke:#038048;stroke-width:1.0;"/><text fill="#000000" font-family="sans-serif" font-size="14" lengthAdjust="spacing" textLength="260" x="415.5" y="245.9063">GrafocenaBusca(_rotulo:char) : Objeto</text><ellipse cx="406.5" cy="258.6035" fill="#84BE84" rx="3" ry="3" style="stroke:#038048;stroke-width:1.0;"/><text fill="#000000" font-family="sans-serif" font-size="14" lengthAdjust="spacing" textLength="365" x="415.5" y="262.3945">GrafocenaBuscaProximo(objetoAtual:Objeto) : Objeto</text><ellipse cx="406.5" cy="275.0918" fill="#84BE84" rx="3" ry="3" style="stroke:#038048;stroke-width:1.0;"/><text fill="#000000" font-family="sans-serif" font-size="14" lengthAdjust="spacing" textLength="243" x="415.5" y="278.8828">GrafocenaImprimir(idt:String) : void</text><ellipse cx="406.5" cy="291.5801" fill="#84BE84" rx="3" ry="3" style="stroke:#038048;stroke-width:1.0;"/><text fill="#000000" font-family="sans-serif" font-size="14" lengthAdjust="spacing" textLength="153" x="415.5" y="295.3711">MatrizImprimir() : void</text><ellipse cx="406.5" cy="308.0684" fill="#84BE84" rx="3" ry="3" style="stroke:#038048;stroke-width:1.0;"/><text fill="#000000" font-family="sans-serif" font-size="14" lengthAdjust="spacing" textLength="220" x="415.5" y="311.8594">MatrizAtribuirIdentidade() : void</text><ellipse cx="406.5" cy="324.5566" fill="#84BE84" rx="3" ry="3" style="stroke:#038048;stroke-width:1.0;"/><text fill="#000000" font-family="sans-serif" font-size="14" lengthAdjust="spacing" textLength="406" x="415.5" y="328.3477">MatrizTranslacaoXYZ(tx:double, ty:double, tz:double) : void</text><ellipse cx="406.5" cy="341.0449" fill="#84BE84" rx="3" ry="3" style="stroke:#038048;stroke-width:1.0;"/><text fill="#000000" font-family="sans-serif" font-size="14" lengthAdjust="spacing" textLength="382" x="415.5" y="344.8359">MatrizEscalaXYZ(Sx:double, Sy:double, Sz:double) : void</text><ellipse cx="406.5" cy="357.5332" fill="#84BE84" rx="3" ry="3" style="stroke:#038048;stroke-width:1.0;"/><text fill="#000000" font-family="sans-serif" font-size="14" lengthAdjust="spacing" textLength="416" x="415.5" y="361.3242">MatrizEscalaXYZBBox(Sx:double, Sy:double, Sz:double) : void</text><ellipse cx="406.5" cy="374.0215" fill="#84BE84" rx="3" ry="3" style="stroke:#038048;stroke-width:1.0;"/><text fill="#000000" font-family="sans-serif" font-size="14" lengthAdjust="spacing" textLength="279" x="415.5" y="377.8125">MatrizRotacaoEixo(angulo:double) : void</text><ellipse cx="406.5" cy="390.5098" fill="#84BE84" rx="3" ry="3" style="stroke:#038048;stroke-width:1.0;"/><text fill="#000000" font-family="sans-serif" font-size="14" lengthAdjust="spacing" textLength="249" x="415.5" y="394.3008">MatrizRotacao(angulo:double) : void</text><ellipse cx="406.5" cy="406.998" fill="#84BE84" rx="3" ry="3" style="stroke:#038048;stroke-width:1.0;"/><text fill="#000000" font-family="sans-serif" font-size="14" lengthAdjust="spacing" textLength="291" x="415.5" y="410.7891">MatrizRotacaoZBBox(angulo:double) : void</text><ellipse cx="406.5" cy="423.4863" fill="#84BE84" rx="3" ry="3" style="stroke:#038048;stroke-width:1.0;"/><text fill="#000000" font-family="sans-serif" font-size="14" lengthAdjust="spacing" textLength="120" x="415.5" y="427.2773">OnUnload() : void</text></g><!--class Mundo--><g id="elem_Mundo"><rect codeLine="1" fill="#F1F1F1" height="64.4883" id="Mundo" rx="2.5" ry="2.5" style="stroke:#181818;stroke-width:0.5;" width="696" x="828.5" y="502.48"/><ellipse cx="1148.25" cy="518.48" fill="#ADD1B2" rx="11" ry="11" style="stroke:#181818;stroke-width:1.0;"/><path d="M1150.7231,524.6231 Q1150.1421,524.9219 1149.5029,525.0713 Q1148.8638,525.2207 1148.1582,525.2207 Q1145.6514,525.2207 1144.3315,523.5689 Q1143.0117,521.917 1143.0117,518.7959 Q1143.0117,515.6665 1144.3315,514.0147 Q1145.6514,512.3628 1148.1582,512.3628 Q1148.8638,512.3628 1149.5112,512.5122 Q1150.1587,512.6616 1150.7231,512.9605 L1150.7231,515.6831 Q1150.0923,515.1021 1149.4988,514.8323 Q1148.9053,514.5625 1148.2744,514.5625 Q1146.9297,514.5625 1146.2449,515.6292 Q1145.5601,516.6958 1145.5601,518.7959 Q1145.5601,520.8877 1146.2449,521.9544 Q1146.9297,523.021 1148.2744,523.021 Q1148.9053,523.021 1149.4988,522.7512 Q1150.0923,522.4815 1150.7231,521.9004 Z " fill="#000000"/><text fill="#000000" font-family="sans-serif" font-size="14" lengthAdjust="spacing" textLength="48" x="1168.75" y="523.771">Mundo</text><line style="stroke:#181818;stroke-width:0.5;" x1="829.5" x2="1523.5" y1="534.48" y2="534.48"/><line style="stroke:#181818;stroke-width:0.5;" x1="829.5" x2="1523.5" y1="542.48" y2="542.48"/><ellipse cx="839.5" cy="556.2241" fill="#84BE84" rx="3" ry="3" style="stroke:#038048;stroke-width:1.0;"/><text fill="#000000" font-family="sans-serif" font-size="14" lengthAdjust="spacing" textLength="670" x="848.5" y="560.0152">Mundo(gameWindowSettings:GameWindowSettings, nativeWindowSettings:NativeWindowSettings)</text></g><!--class GameWindow--><g id="elem_GameWindow"><rect fill="#F1F1F1" height="48" id="GameWindow" rx="2.5" ry="2.5" style="stroke:#181818;stroke-width:0.5;" width="125" x="1114" y="196.62"/><ellipse cx="1129" cy="212.62" fill="#ADD1B2" rx="11" ry="11" style="stroke:#181818;stroke-width:1.0;"/><path d="M1131.4731,218.7631 Q1130.8921,219.0619 1130.2529,219.2113 Q1129.6138,219.3607 1128.9082,219.3607 Q1126.4014,219.3607 1125.0815,217.7089 Q1123.7617,216.057 1123.7617,212.9359 Q1123.7617,209.8065 1125.0815,208.1547 Q1126.4014,206.5028 1128.9082,206.5028 Q1129.6138,206.5028 1130.2612,206.6522 Q1130.9087,206.8016 1131.4731,207.1005 L1131.4731,209.8231 Q1130.8423,209.2421 1130.2488,208.9723 Q1129.6553,208.7025 1129.0244,208.7025 Q1127.6797,208.7025 1126.9949,209.7692 Q1126.3101,210.8358 1126.3101,212.9359 Q1126.3101,215.0277 1126.9949,216.0944 Q1127.6797,217.161 1129.0244,217.161 Q1129.6553,217.161 1130.2488,216.8912 Q1130.8423,216.6215 1131.4731,216.0404 Z " fill="#000000"/><text fill="#000000" font-family="sans-serif" font-size="14" lengthAdjust="spacing" textLength="93" x="1143" y="217.911">GameWindow</text><line style="stroke:#181818;stroke-width:0.5;" x1="1115" x2="1238" y1="228.62" y2="228.62"/><line style="stroke:#181818;stroke-width:0.5;" x1="1115" x2="1238" y1="236.62" y2="236.62"/></g><!--class PrimitiveType--><g id="elem_PrimitiveType"><rect fill="#F1F1F1" height="48" id="PrimitiveType" rx="2.5" ry="2.5" style="stroke:#181818;stroke-width:0.5;" width="124" x="554.5" y="510.72"/><ellipse cx="569.5" cy="526.72" fill="#ADD1B2" rx="11" ry="11" style="stroke:#181818;stroke-width:1.0;"/><path d="M571.9731,532.8631 Q571.3921,533.1619 570.7529,533.3113 Q570.1138,533.4607 569.4082,533.4607 Q566.9014,533.4607 565.5815,531.8089 Q564.2617,530.157 564.2617,527.0359 Q564.2617,523.9065 565.5815,522.2547 Q566.9014,520.6028 569.4082,520.6028 Q570.1138,520.6028 570.7612,520.7522 Q571.4087,520.9016 571.9731,521.2005 L571.9731,523.9231 Q571.3423,523.3421 570.7488,523.0723 Q570.1553,522.8025 569.5244,522.8025 Q568.1797,522.8025 567.4949,523.8692 Q566.8101,524.9358 566.8101,527.0359 Q566.8101,529.1277 567.4949,530.1944 Q568.1797,531.261 569.5244,531.261 Q570.1553,531.261 570.7488,530.9912 Q571.3423,530.7215 571.9731,530.1404 Z " fill="#000000"/><text fill="#000000" font-family="sans-serif" font-size="14" lengthAdjust="spacing" textLength="92" x="583.5" y="532.011">PrimitiveType</text><line style="stroke:#181818;stroke-width:0.5;" x1="555.5" x2="677.5" y1="542.72" y2="542.72"/><line style="stroke:#181818;stroke-width:0.5;" x1="555.5" x2="677.5" y1="550.72" y2="550.72"/></g><!--class Shader--><g id="elem_Shader"><rect fill="#F1F1F1" height="48" id="Shader" rx="2.5" ry="2.5" style="stroke:#181818;stroke-width:0.5;" width="80" x="713.5" y="510.72"/><ellipse cx="728.5" cy="526.72" fill="#ADD1B2" rx="11" ry="11" style="stroke:#181818;stroke-width:1.0;"/><path d="M730.9731,532.8631 Q730.3921,533.1619 729.7529,533.3113 Q729.1138,533.4607 728.4082,533.4607 Q725.9014,533.4607 724.5815,531.8089 Q723.2617,530.157 723.2617,527.0359 Q723.2617,523.9065 724.5815,522.2547 Q725.9014,520.6028 728.4082,520.6028 Q729.1138,520.6028 729.7612,520.7522 Q730.4087,520.9016 730.9731,521.2005 L730.9731,523.9231 Q730.3423,523.3421 729.7488,523.0723 Q729.1553,522.8025 728.5244,522.8025 Q727.1797,522.8025 726.4949,523.8692 Q725.8101,524.9358 725.8101,527.0359 Q725.8101,529.1277 726.4949,530.1944 Q727.1797,531.261 728.5244,531.261 Q729.1553,531.261 729.7488,530.9912 Q730.3423,530.7215 730.9731,530.1404 Z " fill="#000000"/><text fill="#000000" font-family="sans-serif" font-size="14" lengthAdjust="spacing" textLength="48" x="742.5" y="532.011">Shader</text><line style="stroke:#181818;stroke-width:0.5;" x1="714.5" x2="792.5" y1="542.72" y2="542.72"/><line style="stroke:#181818;stroke-width:0.5;" x1="714.5" x2="792.5" y1="550.72" y2="550.72"/></g><!--class Program--><g id="elem_Program"><rect codeLine="1" fill="#F1F1F1" height="56.6211" id="Program" rx="2.5" ry="2.5" style="stroke:#181818;stroke-width:0.5;" width="91" x="1274" y="192.31"/><ellipse cx="1289" cy="212.6205" fill="#ADD1B2" rx="11" ry="11" style="stroke:#181818;stroke-width:1.0;"/><path d="M1291.4731,218.7636 Q1290.8921,219.0624 1290.2529,219.2119 Q1289.6138,219.3613 1288.9082,219.3613 Q1286.4014,219.3613 1285.0815,217.7094 Q1283.7617,216.0576 1283.7617,212.9365 Q1283.7617,209.8071 1285.0815,208.1552 Q1286.4014,206.5034 1288.9082,206.5034 Q1289.6138,206.5034 1290.2612,206.6528 Q1290.9087,206.8022 1291.4731,207.101 L1291.4731,209.8237 Q1290.8423,209.2426 1290.2488,208.9728 Q1289.6553,208.7031 1289.0244,208.7031 Q1287.6797,208.7031 1286.9949,209.7697 Q1286.3101,210.8364 1286.3101,212.9365 Q1286.3101,215.0283 1286.9949,216.0949 Q1287.6797,217.1616 1289.0244,217.1616 Q1289.6553,217.1616 1290.2488,216.8918 Q1290.8423,216.622 1291.4731,216.041 Z " fill="#000000"/><text fill="#000000" font-family="sans-serif" font-size="12" font-style="italic" lengthAdjust="spacing" textLength="42" x="1311.5" y="208.9116">&#171;static&#187;</text><text fill="#000000" font-family="sans-serif" font-size="14" lengthAdjust="spacing" textLength="59" x="1303" y="224.978">Program</text><line style="stroke:#181818;stroke-width:0.5;" x1="1275" x2="1364" y1="232.9311" y2="232.9311"/><line style="stroke:#181818;stroke-width:0.5;" x1="1275" x2="1364" y1="240.9311" y2="240.9311"/></g><!--reverse link Objeto to Poligono--><g id="link_Objeto_Poligono"><path codeLine="5" d="M381.7137,429.2014 C348.9637,458.1514 331.92,473.23 308.51,493.93 " fill="none" id="Objeto-backto-Poligono" style="stroke:#181818;stroke-width:1.0;"/><polygon fill="none" points="395.2,417.28,377.7399,424.706,385.6876,433.6969,395.2,417.28" style="stroke:#181818;stroke-width:1.0;"/></g><!--reverse link GameWindow to Mundo--><g id="link_GameWindow_Mundo"><path codeLine="4" d="M1176.5,263.08 C1176.5,318.51 1176.5,439.61 1176.5,502.27 " fill="none" id="GameWindow-backto-Mundo" style="stroke:#181818;stroke-width:1.0;"/><polygon fill="none" points="1176.5,245.08,1170.5,263.08,1182.5,263.08,1176.5,245.08" style="stroke:#181818;stroke-width:1.0;"/></g><!--link Objeto to PrimitiveType--><g id="link_Objeto_PrimitiveType"><path codeLine="26" d="M616.5,434.54 C616.5,465.08 616.5,486.26 616.5,504.4 " fill="none" id="Objeto-to-PrimitiveType" style="stroke:#181818;stroke-width:1.0;"/><polygon fill="#181818" points="616.5,510.4,620.5,501.4,616.5,505.4,612.5,501.4,616.5,510.4" style="stroke:#181818;stroke-width:1.0;"/><text fill="#000000" font-family="sans-serif" font-size="13" lengthAdjust="spacing" textLength="83" x="522.8656" y="499.8543">PrimitivaTipo</text></g><!--link Objeto to Shader--><g id="link_Objeto_Shader"><path codeLine="27" d="M709.96,434.54 C723.37,465.08 732.8891,486.7657 740.8491,504.9057 " fill="none" id="Objeto-to-Shader" style="stroke:#181818;stroke-width:1.0;"/><polygon fill="#181818" points="743.26,510.4,743.3064,500.5513,741.2509,505.8214,735.9807,503.7659,743.26,510.4" style="stroke:#181818;stroke-width:1.0;"/><text fill="#000000" font-family="sans-serif" font-size="13" lengthAdjust="spacing" textLength="84" x="680.9798" y="499.8543">shaderObjeto</text></g><!--SRC=[KypCIyufJKbLqDCFoC_9JC_FozShACtDuL94IFYMvgLWYledPQMMO0e75EMd5oNcOeZd9sNfkwGcbQRhvwMMMEWPwElvkOOuvnUbEXOKw8Ib5XLdvkVPbW4bz1oBYrDpat8g7KjAYZAJIajIYmaRvkmUxsSSxrgHcbkGamytmJCl3U900000]--></g></svg>