<?xml version="1.0" encoding="us-ascii" standalone="no"?><svg xmlns="http://www.w3.org/2000/svg" xmlns:xlink="http://www.w3.org/1999/xlink" contentStyleType="text/css" height="483px" preserveAspectRatio="none" style="width:4447px;height:483px;background:#FFFFFF;" version="1.1" viewBox="0 0 4447 483" width="4447px" zoomAndPan="magnify"><defs/><g><!--class Poligono--><g id="elem_Poligono"><rect codeLine="1" fill="#F1F1F1" height="80.9766" id="Poligono" rx="2.5" ry="2.5" style="stroke:#181818;stroke-width:0.5;" width="513" x="7" y="362.33"/><ellipse cx="228.75" cy="378.33" fill="#ADD1B2" rx="11" ry="11" style="stroke:#181818;stroke-width:1.0;"/><path d="M231.2231,384.4731 Q230.6421,384.7719 230.0029,384.9213 Q229.3638,385.0707 228.6582,385.0707 Q226.1514,385.0707 224.8315,383.4189 Q223.5117,381.767 223.5117,378.6459 Q223.5117,375.5165 224.8315,373.8647 Q226.1514,372.2128 228.6582,372.2128 Q229.3638,372.2128 230.0112,372.3622 Q230.6587,372.5116 231.2231,372.8105 L231.2231,375.5331 Q230.5923,374.9521 229.9988,374.6823 Q229.4053,374.4125 228.7744,374.4125 Q227.4297,374.4125 226.7449,375.4792 Q226.0601,376.5458 226.0601,378.6459 Q226.0601,380.7377 226.7449,381.8044 Q227.4297,382.871 228.7744,382.871 Q229.4053,382.871 229.9988,382.6012 Q230.5923,382.3315 231.2231,381.7504 Z " fill="#000000"/><text fill="#000000" font-family="sans-serif" font-size="14" lengthAdjust="spacing" textLength="61" x="249.25" y="383.621">Poligono</text><line style="stroke:#181818;stroke-width:0.5;" x1="8" x2="519" y1="394.33" y2="394.33"/><line style="stroke:#181818;stroke-width:0.5;" x1="8" x2="519" y1="402.33" y2="402.33"/><ellipse cx="18" cy="416.0741" fill="#84BE84" rx="3" ry="3" style="stroke:#038048;stroke-width:1.0;"/><text fill="#000000" font-family="sans-serif" font-size="14" lengthAdjust="spacing" textLength="487" x="27" y="419.8652">Poligono(_paiRef:Objeto, _rotulo:char, pontosPoligono:List&lt;Ponto4D&gt;)</text><ellipse cx="18" cy="432.5624" fill="#84BE84" rx="3" ry="3" style="stroke:#038048;stroke-width:1.0;"/><text fill="#000000" font-family="sans-serif" font-size="14" lengthAdjust="spacing" textLength="196" x="27" y="436.3534">&#171;override&#187; ToString() : string</text></g><!--class Objeto--><g id="elem_Objeto"><rect codeLine="1" fill="#F1F1F1" height="262.3477" id="Objeto" rx="2.5" ry="2.5" style="stroke:#181818;stroke-width:0.5;" width="409" x="1788" y="7"/><ellipse cx="1965.25" cy="23" fill="#ADD1B2" rx="11" ry="11" style="stroke:#181818;stroke-width:1.0;"/><path d="M1967.7231,29.1431 Q1967.1421,29.4419 1966.5029,29.5913 Q1965.8638,29.7407 1965.1582,29.7407 Q1962.6514,29.7407 1961.3315,28.0889 Q1960.0117,26.437 1960.0117,23.3159 Q1960.0117,20.1865 1961.3315,18.5347 Q1962.6514,16.8828 1965.1582,16.8828 Q1965.8638,16.8828 1966.5112,17.0322 Q1967.1587,17.1816 1967.7231,17.4805 L1967.7231,20.2031 Q1967.0923,19.6221 1966.4988,19.3523 Q1965.9053,19.0825 1965.2744,19.0825 Q1963.9297,19.0825 1963.2449,20.1492 Q1962.5601,21.2158 1962.5601,23.3159 Q1962.5601,25.4077 1963.2449,26.4744 Q1963.9297,27.541 1965.2744,27.541 Q1965.9053,27.541 1966.4988,27.2712 Q1967.0923,27.0015 1967.7231,26.4204 Z " fill="#000000"/><text fill="#000000" font-family="sans-serif" font-size="14" lengthAdjust="spacing" textLength="46" x="1985.75" y="28.291">Objeto</text><line style="stroke:#181818;stroke-width:0.5;" x1="1789" x2="2196" y1="39" y2="39"/><ellipse cx="1799" cy="52.7441" fill="none" rx="3" ry="3" style="stroke:#038048;stroke-width:1.0;"/><text fill="#000000" font-family="sans-serif" font-size="14" lengthAdjust="spacing" textLength="245" x="1808" y="56.5352">PrimitivaTamanho : float &#171;get&#187; &#171;set&#187;</text><line style="stroke:#181818;stroke-width:0.5;" x1="1789" x2="2196" y1="63.4883" y2="63.4883"/><ellipse cx="1799" cy="77.2324" fill="#84BE84" rx="3" ry="3" style="stroke:#038048;stroke-width:1.0;"/><text fill="#000000" font-family="sans-serif" font-size="14" lengthAdjust="spacing" textLength="91" x="1808" y="81.0234">Bbox() : BBox</text><ellipse cx="1799" cy="93.7207" fill="#84BE84" rx="3" ry="3" style="stroke:#038048;stroke-width:1.0;"/><text fill="#000000" font-family="sans-serif" font-size="14" lengthAdjust="spacing" textLength="383" x="1808" y="97.5117">Objeto(_paiRef:Objeto, _rotulo:char, objetoFilho:Objeto)</text><ellipse cx="1799" cy="110.209" fill="#84BE84" rx="3" ry="3" style="stroke:#038048;stroke-width:1.0;"/><text fill="#000000" font-family="sans-serif" font-size="14" lengthAdjust="spacing" textLength="159" x="1808" y="114">ObjetoAtualizar() : void</text><ellipse cx="1799" cy="126.6973" fill="#84BE84" rx="3" ry="3" style="stroke:#038048;stroke-width:1.0;"/><text fill="#000000" font-family="sans-serif" font-size="14" lengthAdjust="spacing" textLength="116" x="1808" y="130.4883">Desenhar() : void</text><ellipse cx="1799" cy="143.1855" fill="#84BE84" rx="3" ry="3" style="stroke:#038048;stroke-width:1.0;"/><text fill="#000000" font-family="sans-serif" font-size="14" lengthAdjust="spacing" textLength="232" x="1808" y="146.9766">FilhoAdicionar(filho:Objeto) : void</text><ellipse cx="1799" cy="159.6738" fill="#84BE84" rx="3" ry="3" style="stroke:#038048;stroke-width:1.0;"/><text fill="#000000" font-family="sans-serif" font-size="14" lengthAdjust="spacing" textLength="176" x="1808" y="163.4648">PontosId(id:int) : Ponto4D</text><ellipse cx="1799" cy="176.1621" fill="#84BE84" rx="3" ry="3" style="stroke:#038048;stroke-width:1.0;"/><text fill="#000000" font-family="sans-serif" font-size="14" lengthAdjust="spacing" textLength="250" x="1808" y="179.9531">PontosAdicionar(pto:Ponto4D) : void</text><ellipse cx="1799" cy="192.6504" fill="#84BE84" rx="3" ry="3" style="stroke:#038048;stroke-width:1.0;"/><text fill="#000000" font-family="sans-serif" font-size="14" lengthAdjust="spacing" textLength="314" x="1808" y="196.4414">PontosAlterar(pto:Ponto4D, posicao:int) : void</text><ellipse cx="1799" cy="209.1387" fill="#84BE84" rx="3" ry="3" style="stroke:#038048;stroke-width:1.0;"/><text fill="#000000" font-family="sans-serif" font-size="14" lengthAdjust="spacing" textLength="260" x="1808" y="212.9297">GrafocenaBusca(_rotulo:char) : Objeto</text><ellipse cx="1799" cy="225.627" fill="#84BE84" rx="3" ry="3" style="stroke:#038048;stroke-width:1.0;"/><text fill="#000000" font-family="sans-serif" font-size="14" lengthAdjust="spacing" textLength="365" x="1808" y="229.418">GrafocenaBuscaProximo(objetoAtual:Objeto) : Objeto</text><ellipse cx="1799" cy="242.1152" fill="#84BE84" rx="3" ry="3" style="stroke:#038048;stroke-width:1.0;"/><text fill="#000000" font-family="sans-serif" font-size="14" lengthAdjust="spacing" textLength="242" x="1808" y="245.9063">GrafocenaImprimir(idt:string) : void</text><ellipse cx="1799" cy="258.6035" fill="#84BE84" rx="3" ry="3" style="stroke:#038048;stroke-width:1.0;"/><text fill="#000000" font-family="sans-serif" font-size="14" lengthAdjust="spacing" textLength="120" x="1808" y="262.3945">OnUnload() : void</text></g><!--class SrPalito--><g id="elem_SrPalito"><rect codeLine="1" fill="#F1F1F1" height="146.9297" id="SrPalito" rx="2.5" ry="2.5" style="stroke:#181818;stroke-width:0.5;" width="309" x="555" y="329.35"/><ellipse cx="679.25" cy="345.35" fill="#ADD1B2" rx="11" ry="11" style="stroke:#181818;stroke-width:1.0;"/><path d="M681.7231,351.4931 Q681.1421,351.7919 680.5029,351.9413 Q679.8638,352.0907 679.1582,352.0907 Q676.6514,352.0907 675.3315,350.4389 Q674.0117,348.787 674.0117,345.6659 Q674.0117,342.5365 675.3315,340.8847 Q676.6514,339.2328 679.1582,339.2328 Q679.8638,339.2328 680.5112,339.3822 Q681.1587,339.5316 681.7231,339.8305 L681.7231,342.5531 Q681.0923,341.9721 680.4988,341.7023 Q679.9053,341.4325 679.2744,341.4325 Q677.9297,341.4325 677.2449,342.4992 Q676.5601,343.5658 676.5601,345.6659 Q676.5601,347.7577 677.2449,348.8244 Q677.9297,349.891 679.2744,349.891 Q679.9053,349.891 680.4988,349.6212 Q681.0923,349.3515 681.7231,348.7704 Z " fill="#000000"/><text fill="#000000" font-family="sans-serif" font-size="14" lengthAdjust="spacing" textLength="52" x="699.75" y="350.641">SrPalito</text><line style="stroke:#181818;stroke-width:0.5;" x1="556" x2="863" y1="361.35" y2="361.35"/><line style="stroke:#181818;stroke-width:0.5;" x1="556" x2="863" y1="369.35" y2="369.35"/><ellipse cx="566" cy="383.0941" fill="#84BE84" rx="3" ry="3" style="stroke:#038048;stroke-width:1.0;"/><text fill="#000000" font-family="sans-serif" font-size="14" lengthAdjust="spacing" textLength="253" x="575" y="386.8852">SrPalito(_paiRef:Objeto, _rotulo:char)</text><ellipse cx="566" cy="399.5824" fill="#84BE84" rx="3" ry="3" style="stroke:#038048;stroke-width:1.0;"/><text fill="#000000" font-family="sans-serif" font-size="14" lengthAdjust="spacing" textLength="113" x="575" y="403.3734">Atualizar() : void</text><ellipse cx="566" cy="416.0707" fill="#84BE84" rx="3" ry="3" style="stroke:#038048;stroke-width:1.0;"/><text fill="#000000" font-family="sans-serif" font-size="14" lengthAdjust="spacing" textLength="218" x="575" y="419.8617">AtualizarPe(peInc:double) : void</text><ellipse cx="566" cy="432.559" fill="#84BE84" rx="3" ry="3" style="stroke:#038048;stroke-width:1.0;"/><text fill="#000000" font-family="sans-serif" font-size="14" lengthAdjust="spacing" textLength="242" x="575" y="436.35">AtualizarRaio(raioInc:double) : void</text><ellipse cx="566" cy="449.0473" fill="#84BE84" rx="3" ry="3" style="stroke:#038048;stroke-width:1.0;"/><text fill="#000000" font-family="sans-serif" font-size="14" lengthAdjust="spacing" textLength="283" x="575" y="452.8383">AtualizarAngulo(anguloInc:double) : void</text><ellipse cx="566" cy="465.5355" fill="#84BE84" rx="3" ry="3" style="stroke:#038048;stroke-width:1.0;"/><text fill="#000000" font-family="sans-serif" font-size="14" lengthAdjust="spacing" textLength="196" x="575" y="469.3266">&#171;override&#187; ToString() : string</text></g><!--class Mundo--><g id="elem_Mundo"><rect codeLine="1" fill="#F1F1F1" height="64.4883" id="Mundo" rx="2.5" ry="2.5" style="stroke:#181818;stroke-width:0.5;" width="696" x="3744.5" y="370.57"/><ellipse cx="4064.25" cy="386.57" fill="#ADD1B2" rx="11" ry="11" style="stroke:#181818;stroke-width:1.0;"/><path d="M4066.7231,392.7131 Q4066.1421,393.0119 4065.5029,393.1613 Q4064.8638,393.3107 4064.1582,393.3107 Q4061.6514,393.3107 4060.3315,391.6589 Q4059.0117,390.007 4059.0117,386.8859 Q4059.0117,383.7565 4060.3315,382.1047 Q4061.6514,380.4528 4064.1582,380.4528 Q4064.8638,380.4528 4065.5112,380.6022 Q4066.1587,380.7516 4066.7231,381.0505 L4066.7231,383.7731 Q4066.0923,383.1921 4065.4988,382.9223 Q4064.9053,382.6525 4064.2744,382.6525 Q4062.9297,382.6525 4062.2449,383.7192 Q4061.5601,384.7858 4061.5601,386.8859 Q4061.5601,388.9777 4062.2449,390.0444 Q4062.9297,391.111 4064.2744,391.111 Q4064.9053,391.111 4065.4988,390.8412 Q4066.0923,390.5715 4066.7231,389.9904 Z " fill="#000000"/><text fill="#000000" font-family="sans-serif" font-size="14" lengthAdjust="spacing" textLength="48" x="4084.75" y="391.861">Mundo</text><line style="stroke:#181818;stroke-width:0.5;" x1="3745.5" x2="4439.5" y1="402.57" y2="402.57"/><line style="stroke:#181818;stroke-width:0.5;" x1="3745.5" x2="4439.5" y1="410.57" y2="410.57"/><ellipse cx="3755.5" cy="424.3141" fill="#84BE84" rx="3" ry="3" style="stroke:#038048;stroke-width:1.0;"/><text fill="#000000" font-family="sans-serif" font-size="14" lengthAdjust="spacing" textLength="670" x="3764.5" y="428.1052">Mundo(gameWindowSettings:GameWindowSettings, nativeWindowSettings:NativeWindowSettings)</text></g><!--class GameWindow--><g id="elem_GameWindow"><rect fill="#F1F1F1" height="48" id="GameWindow" rx="2.5" ry="2.5" style="stroke:#181818;stroke-width:0.5;" width="125" x="4030" y="114.18"/><ellipse cx="4045" cy="130.18" fill="#ADD1B2" rx="11" ry="11" style="stroke:#181818;stroke-width:1.0;"/><path d="M4047.4731,136.3231 Q4046.8921,136.6219 4046.2529,136.7713 Q4045.6138,136.9207 4044.9082,136.9207 Q4042.4014,136.9207 4041.0815,135.2689 Q4039.7617,133.617 4039.7617,130.4959 Q4039.7617,127.3665 4041.0815,125.7147 Q4042.4014,124.0628 4044.9082,124.0628 Q4045.6138,124.0628 4046.2612,124.2122 Q4046.9087,124.3616 4047.4731,124.6605 L4047.4731,127.3831 Q4046.8423,126.8021 4046.2488,126.5323 Q4045.6553,126.2625 4045.0244,126.2625 Q4043.6797,126.2625 4042.9949,127.3292 Q4042.3101,128.3958 4042.3101,130.4959 Q4042.3101,132.5877 4042.9949,133.6544 Q4043.6797,134.721 4045.0244,134.721 Q4045.6553,134.721 4046.2488,134.4512 Q4046.8423,134.1815 4047.4731,133.6004 Z " fill="#000000"/><text fill="#000000" font-family="sans-serif" font-size="14" lengthAdjust="spacing" textLength="93" x="4059" y="135.471">GameWindow</text><line style="stroke:#181818;stroke-width:0.5;" x1="4031" x2="4154" y1="146.18" y2="146.18"/><line style="stroke:#181818;stroke-width:0.5;" x1="4031" x2="4154" y1="154.18" y2="154.18"/></g><!--class Spline--><g id="elem_Spline"><rect codeLine="1" fill="#F1F1F1" height="130.4414" id="Spline" rx="2.5" ry="2.5" style="stroke:#181818;stroke-width:0.5;" width="389" x="899" y="337.59"/><ellipse cx="1068.25" cy="353.59" fill="#ADD1B2" rx="11" ry="11" style="stroke:#181818;stroke-width:1.0;"/><path d="M1070.7231,359.7331 Q1070.1421,360.0319 1069.5029,360.1813 Q1068.8638,360.3307 1068.1582,360.3307 Q1065.6514,360.3307 1064.3315,358.6789 Q1063.0117,357.027 1063.0117,353.9059 Q1063.0117,350.7765 1064.3315,349.1247 Q1065.6514,347.4728 1068.1582,347.4728 Q1068.8638,347.4728 1069.5112,347.6222 Q1070.1587,347.7716 1070.7231,348.0705 L1070.7231,350.7931 Q1070.0923,350.2121 1069.4988,349.9423 Q1068.9053,349.6725 1068.2744,349.6725 Q1066.9297,349.6725 1066.2449,350.7392 Q1065.5601,351.8058 1065.5601,353.9059 Q1065.5601,355.9977 1066.2449,357.0644 Q1066.9297,358.131 1068.2744,358.131 Q1068.9053,358.131 1069.4988,357.8612 Q1070.0923,357.5915 1070.7231,357.0104 Z " fill="#000000"/><text fill="#000000" font-family="sans-serif" font-size="14" lengthAdjust="spacing" textLength="42" x="1088.75" y="358.881">Spline</text><line style="stroke:#181818;stroke-width:0.5;" x1="900" x2="1287" y1="369.59" y2="369.59"/><line style="stroke:#181818;stroke-width:0.5;" x1="900" x2="1287" y1="377.59" y2="377.59"/><ellipse cx="910" cy="391.3341" fill="#84BE84" rx="3" ry="3" style="stroke:#038048;stroke-width:1.0;"/><text fill="#000000" font-family="sans-serif" font-size="14" lengthAdjust="spacing" textLength="182" x="919" y="395.1252">SplineQtdPto(inc:int) : void</text><ellipse cx="910" cy="407.8224" fill="#84BE84" rx="3" ry="3" style="stroke:#038048;stroke-width:1.0;"/><text fill="#000000" font-family="sans-serif" font-size="14" lengthAdjust="spacing" textLength="243" x="919" y="411.6134">Spline(_paiRef:Objeto, _rotulo:char)</text><ellipse cx="910" cy="424.3107" fill="#84BE84" rx="3" ry="3" style="stroke:#038048;stroke-width:1.0;"/><text fill="#000000" font-family="sans-serif" font-size="14" lengthAdjust="spacing" textLength="113" x="919" y="428.1017">Atualizar() : void</text><ellipse cx="910" cy="440.799" fill="#84BE84" rx="3" ry="3" style="stroke:#038048;stroke-width:1.0;"/><text fill="#000000" font-family="sans-serif" font-size="14" lengthAdjust="spacing" textLength="363" x="919" y="444.59">AtualizarSpline(ptoInc:Ponto4D, proximo:bool) : void</text><ellipse cx="910" cy="457.2873" fill="#84BE84" rx="3" ry="3" style="stroke:#038048;stroke-width:1.0;"/><text fill="#000000" font-family="sans-serif" font-size="14" lengthAdjust="spacing" textLength="196" x="919" y="461.0783">&#171;override&#187; ToString() : string</text></g><!--class Retangulo--><g id="elem_Retangulo"><rect codeLine="1" fill="#F1F1F1" height="97.4648" id="Retangulo" rx="2.5" ry="2.5" style="stroke:#181818;stroke-width:0.5;" width="573" x="1323" y="354.08"/><ellipse cx="1570.25" cy="370.08" fill="#ADD1B2" rx="11" ry="11" style="stroke:#181818;stroke-width:1.0;"/><path d="M1572.7231,376.2231 Q1572.1421,376.5219 1571.5029,376.6713 Q1570.8638,376.8207 1570.1582,376.8207 Q1567.6514,376.8207 1566.3315,375.1689 Q1565.0117,373.517 1565.0117,370.3959 Q1565.0117,367.2665 1566.3315,365.6147 Q1567.6514,363.9628 1570.1582,363.9628 Q1570.8638,363.9628 1571.5112,364.1122 Q1572.1587,364.2616 1572.7231,364.5605 L1572.7231,367.2831 Q1572.0923,366.7021 1571.4988,366.4323 Q1570.9053,366.1625 1570.2744,366.1625 Q1568.9297,366.1625 1568.2449,367.2292 Q1567.5601,368.2958 1567.5601,370.3959 Q1567.5601,372.4877 1568.2449,373.5544 Q1568.9297,374.621 1570.2744,374.621 Q1570.9053,374.621 1571.4988,374.3512 Q1572.0923,374.0815 1572.7231,373.5004 Z " fill="#000000"/><text fill="#000000" font-family="sans-serif" font-size="14" lengthAdjust="spacing" textLength="70" x="1590.75" y="375.371">Retangulo</text><line style="stroke:#181818;stroke-width:0.5;" x1="1324" x2="1895" y1="386.08" y2="386.08"/><line style="stroke:#181818;stroke-width:0.5;" x1="1324" x2="1895" y1="394.08" y2="394.08"/><ellipse cx="1334" cy="407.8241" fill="#84BE84" rx="3" ry="3" style="stroke:#038048;stroke-width:1.0;"/><text fill="#000000" font-family="sans-serif" font-size="14" lengthAdjust="spacing" textLength="271" x="1343" y="411.6152">Retangulo(_paiRef:Objeto, _rotulo:char)</text><ellipse cx="1334" cy="424.3124" fill="#84BE84" rx="3" ry="3" style="stroke:#038048;stroke-width:1.0;"/><text fill="#000000" font-family="sans-serif" font-size="14" lengthAdjust="spacing" textLength="547" x="1343" y="428.1034">Retangulo(_paiRef:Objeto, _rotulo:char, ptoInfEsq:Ponto4D, ptoSupDir:Ponto4D)</text><ellipse cx="1334" cy="440.8007" fill="#84BE84" rx="3" ry="3" style="stroke:#038048;stroke-width:1.0;"/><text fill="#000000" font-family="sans-serif" font-size="14" lengthAdjust="spacing" textLength="196" x="1343" y="444.5917">&#171;override&#187; ToString() : string</text></g><!--class PrimitiveType--><g id="elem_PrimitiveType"><rect fill="#F1F1F1" height="48" id="PrimitiveType" rx="2.5" ry="2.5" style="stroke:#181818;stroke-width:0.5;" width="124" x="1930.5" y="378.82"/><ellipse cx="1945.5" cy="394.82" fill="#ADD1B2" rx="11" ry="11" style="stroke:#181818;stroke-width:1.0;"/><path d="M1947.9731,400.9631 Q1947.3921,401.2619 1946.7529,401.4113 Q1946.1138,401.5607 1945.4082,401.5607 Q1942.9014,401.5607 1941.5815,399.9089 Q1940.2617,398.257 1940.2617,395.1359 Q1940.2617,392.0065 1941.5815,390.3547 Q1942.9014,388.7028 1945.4082,388.7028 Q1946.1138,388.7028 1946.7612,388.8522 Q1947.4087,389.0016 1947.9731,389.3005 L1947.9731,392.0231 Q1947.3423,391.4421 1946.7488,391.1723 Q1946.1553,390.9025 1945.5244,390.9025 Q1944.1797,390.9025 1943.4949,391.9692 Q1942.8101,393.0358 1942.8101,395.1359 Q1942.8101,397.2277 1943.4949,398.2944 Q1944.1797,399.361 1945.5244,399.361 Q1946.1553,399.361 1946.7488,399.0912 Q1947.3423,398.8215 1947.9731,398.2404 Z " fill="#000000"/><text fill="#000000" font-family="sans-serif" font-size="14" lengthAdjust="spacing" textLength="92" x="1959.5" y="400.111">PrimitiveType</text><line style="stroke:#181818;stroke-width:0.5;" x1="1931.5" x2="2053.5" y1="410.82" y2="410.82"/><line style="stroke:#181818;stroke-width:0.5;" x1="1931.5" x2="2053.5" y1="418.82" y2="418.82"/></g><!--class Shader--><g id="elem_Shader"><rect fill="#F1F1F1" height="48" id="Shader" rx="2.5" ry="2.5" style="stroke:#181818;stroke-width:0.5;" width="80" x="2089.5" y="378.82"/><ellipse cx="2104.5" cy="394.82" fill="#ADD1B2" rx="11" ry="11" style="stroke:#181818;stroke-width:1.0;"/><path d="M2106.9731,400.9631 Q2106.3921,401.2619 2105.7529,401.4113 Q2105.1138,401.5607 2104.4082,401.5607 Q2101.9014,401.5607 2100.5815,399.9089 Q2099.2617,398.257 2099.2617,395.1359 Q2099.2617,392.0065 2100.5815,390.3547 Q2101.9014,388.7028 2104.4082,388.7028 Q2105.1138,388.7028 2105.7612,388.8522 Q2106.4087,389.0016 2106.9731,389.3005 L2106.9731,392.0231 Q2106.3423,391.4421 2105.7488,391.1723 Q2105.1553,390.9025 2104.5244,390.9025 Q2103.1797,390.9025 2102.4949,391.9692 Q2101.8101,393.0358 2101.8101,395.1359 Q2101.8101,397.2277 2102.4949,398.2944 Q2103.1797,399.361 2104.5244,399.361 Q2105.1553,399.361 2105.7488,399.0912 Q2106.3423,398.8215 2106.9731,398.2404 Z " fill="#000000"/><text fill="#000000" font-family="sans-serif" font-size="14" lengthAdjust="spacing" textLength="48" x="2118.5" y="400.111">Shader</text><line style="stroke:#181818;stroke-width:0.5;" x1="2090.5" x2="2168.5" y1="410.82" y2="410.82"/><line style="stroke:#181818;stroke-width:0.5;" x1="2090.5" x2="2168.5" y1="418.82" y2="418.82"/></g><!--class Ponto--><g id="elem_Ponto"><rect codeLine="1" fill="#F1F1F1" height="113.9531" id="Ponto" rx="2.5" ry="2.5" style="stroke:#181818;stroke-width:0.5;" width="361" x="2205" y="345.84"/><ellipse cx="2361.25" cy="361.84" fill="#ADD1B2" rx="11" ry="11" style="stroke:#181818;stroke-width:1.0;"/><path d="M2363.7231,367.9831 Q2363.1421,368.2819 2362.5029,368.4313 Q2361.8638,368.5807 2361.1582,368.5807 Q2358.6514,368.5807 2357.3315,366.9289 Q2356.0117,365.277 2356.0117,362.1559 Q2356.0117,359.0265 2357.3315,357.3747 Q2358.6514,355.7228 2361.1582,355.7228 Q2361.8638,355.7228 2362.5112,355.8722 Q2363.1587,356.0216 2363.7231,356.3205 L2363.7231,359.0431 Q2363.0923,358.4621 2362.4988,358.1923 Q2361.9053,357.9225 2361.2744,357.9225 Q2359.9297,357.9225 2359.2449,358.9892 Q2358.5601,360.0558 2358.5601,362.1559 Q2358.5601,364.2477 2359.2449,365.3144 Q2359.9297,366.381 2361.2744,366.381 Q2361.9053,366.381 2362.4988,366.1112 Q2363.0923,365.8415 2363.7231,365.2604 Z " fill="#000000"/><text fill="#000000" font-family="sans-serif" font-size="14" lengthAdjust="spacing" textLength="40" x="2381.75" y="367.131">Ponto</text><line style="stroke:#181818;stroke-width:0.5;" x1="2206" x2="2565" y1="377.84" y2="377.84"/><line style="stroke:#181818;stroke-width:0.5;" x1="2206" x2="2565" y1="385.84" y2="385.84"/><ellipse cx="2216" cy="399.5841" fill="#84BE84" rx="3" ry="3" style="stroke:#038048;stroke-width:1.0;"/><text fill="#000000" font-family="sans-serif" font-size="14" lengthAdjust="spacing" textLength="241" x="2225" y="403.3752">Ponto(_paiRef:Objeto, _rotulo:char)</text><ellipse cx="2216" cy="416.0724" fill="#84BE84" rx="3" ry="3" style="stroke:#038048;stroke-width:1.0;"/><text fill="#000000" font-family="sans-serif" font-size="14" lengthAdjust="spacing" textLength="335" x="2225" y="419.8634">Ponto(_paiRef:Objeto, _rotulo:char, pto:Ponto4D)</text><ellipse cx="2216" cy="432.5607" fill="#84BE84" rx="3" ry="3" style="stroke:#038048;stroke-width:1.0;"/><text fill="#000000" font-family="sans-serif" font-size="14" lengthAdjust="spacing" textLength="113" x="2225" y="436.3517">Atualizar() : void</text><ellipse cx="2216" cy="449.049" fill="#84BE84" rx="3" ry="3" style="stroke:#038048;stroke-width:1.0;"/><text fill="#000000" font-family="sans-serif" font-size="14" lengthAdjust="spacing" textLength="196" x="2225" y="452.84">&#171;override&#187; ToString() : string</text></g><!--class Circulo--><g id="elem_Circulo"><rect codeLine="1" fill="#F1F1F1" height="113.9531" id="Circulo" rx="2.5" ry="2.5" style="stroke:#181818;stroke-width:0.5;" width="561" x="2601" y="345.84"/><ellipse cx="2852.75" cy="361.84" fill="#ADD1B2" rx="11" ry="11" style="stroke:#181818;stroke-width:1.0;"/><path d="M2855.2231,367.9831 Q2854.6421,368.2819 2854.0029,368.4313 Q2853.3638,368.5807 2852.6582,368.5807 Q2850.1514,368.5807 2848.8315,366.9289 Q2847.5117,365.277 2847.5117,362.1559 Q2847.5117,359.0265 2848.8315,357.3747 Q2850.1514,355.7228 2852.6582,355.7228 Q2853.3638,355.7228 2854.0112,355.8722 Q2854.6587,356.0216 2855.2231,356.3205 L2855.2231,359.0431 Q2854.5923,358.4621 2853.9988,358.1923 Q2853.4053,357.9225 2852.7744,357.9225 Q2851.4297,357.9225 2850.7449,358.9892 Q2850.0601,360.0558 2850.0601,362.1559 Q2850.0601,364.2477 2850.7449,365.3144 Q2851.4297,366.381 2852.7744,366.381 Q2853.4053,366.381 2853.9988,366.1112 Q2854.5923,365.8415 2855.2231,365.2604 Z " fill="#000000"/><text fill="#000000" font-family="sans-serif" font-size="14" lengthAdjust="spacing" textLength="49" x="2873.25" y="367.131">Circulo</text><line style="stroke:#181818;stroke-width:0.5;" x1="2602" x2="3161" y1="377.84" y2="377.84"/><line style="stroke:#181818;stroke-width:0.5;" x1="2602" x2="3161" y1="385.84" y2="385.84"/><ellipse cx="2612" cy="399.5841" fill="#84BE84" rx="3" ry="3" style="stroke:#038048;stroke-width:1.0;"/><text fill="#000000" font-family="sans-serif" font-size="14" lengthAdjust="spacing" textLength="344" x="2621" y="403.3752">Circulo(_paiRef:Objeto, _rotulo:char, _raio:double)</text><ellipse cx="2612" cy="416.0724" fill="#84BE84" rx="3" ry="3" style="stroke:#038048;stroke-width:1.0;"/><text fill="#000000" font-family="sans-serif" font-size="14" lengthAdjust="spacing" textLength="535" x="2621" y="419.8634">Circulo(_paiRef:Objeto, _rotulo:char, _raio:double, ptoDeslocamento:Ponto4D)</text><ellipse cx="2612" cy="432.5607" fill="#84BE84" rx="3" ry="3" style="stroke:#038048;stroke-width:1.0;"/><text fill="#000000" font-family="sans-serif" font-size="14" lengthAdjust="spacing" textLength="296" x="2621" y="436.3517">Atualizar(ptoDeslocamento:Ponto4D) : void</text><ellipse cx="2612" cy="449.049" fill="#84BE84" rx="3" ry="3" style="stroke:#038048;stroke-width:1.0;"/><text fill="#000000" font-family="sans-serif" font-size="14" lengthAdjust="spacing" textLength="196" x="2621" y="452.84">&#171;override&#187; ToString() : string</text></g><!--class SegReta--><g id="elem_SegReta"><rect codeLine="1" fill="#F1F1F1" height="97.4648" id="SegReta" rx="2.5" ry="2.5" style="stroke:#181818;stroke-width:0.5;" width="512" x="3197.5" y="354.08"/><ellipse cx="3421.75" cy="370.08" fill="#ADD1B2" rx="11" ry="11" style="stroke:#181818;stroke-width:1.0;"/><path d="M3424.2231,376.2231 Q3423.6421,376.5219 3423.0029,376.6713 Q3422.3638,376.8207 3421.6582,376.8207 Q3419.1514,376.8207 3417.8315,375.1689 Q3416.5117,373.517 3416.5117,370.3959 Q3416.5117,367.2665 3417.8315,365.6147 Q3419.1514,363.9628 3421.6582,363.9628 Q3422.3638,363.9628 3423.0112,364.1122 Q3423.6587,364.2616 3424.2231,364.5605 L3424.2231,367.2831 Q3423.5923,366.7021 3422.9988,366.4323 Q3422.4053,366.1625 3421.7744,366.1625 Q3420.4297,366.1625 3419.7449,367.2292 Q3419.0601,368.2958 3419.0601,370.3959 Q3419.0601,372.4877 3419.7449,373.5544 Q3420.4297,374.621 3421.7744,374.621 Q3422.4053,374.621 3422.9988,374.3512 Q3423.5923,374.0815 3424.2231,373.5004 Z " fill="#000000"/><text fill="#000000" font-family="sans-serif" font-size="14" lengthAdjust="spacing" textLength="55" x="3442.25" y="375.371">SegReta</text><line style="stroke:#181818;stroke-width:0.5;" x1="3198.5" x2="3708.5" y1="386.08" y2="386.08"/><line style="stroke:#181818;stroke-width:0.5;" x1="3198.5" x2="3708.5" y1="394.08" y2="394.08"/><ellipse cx="3208.5" cy="407.8241" fill="#84BE84" rx="3" ry="3" style="stroke:#038048;stroke-width:1.0;"/><text fill="#000000" font-family="sans-serif" font-size="14" lengthAdjust="spacing" textLength="256" x="3217.5" y="411.6152">SegReta(_paiRef:Objeto, _rotulo:char)</text><ellipse cx="3208.5" cy="424.3124" fill="#84BE84" rx="3" ry="3" style="stroke:#038048;stroke-width:1.0;"/><text fill="#000000" font-family="sans-serif" font-size="14" lengthAdjust="spacing" textLength="486" x="3217.5" y="428.1034">SegReta(_paiRef:Objeto, _rotulo:char, ptoIni:Ponto4D, ptoFim:Ponto4D)</text><ellipse cx="3208.5" cy="440.8007" fill="#84BE84" rx="3" ry="3" style="stroke:#038048;stroke-width:1.0;"/><text fill="#000000" font-family="sans-serif" font-size="14" lengthAdjust="spacing" textLength="196" x="3217.5" y="444.5917">&#171;override&#187; ToString() : string</text></g><!--class Program--><g id="elem_Program"><rect codeLine="1" fill="#F1F1F1" height="56.6211" id="Program" rx="2.5" ry="2.5" style="stroke:#181818;stroke-width:0.5;" width="91" x="4190" y="109.87"/><ellipse cx="4205" cy="130.1805" fill="#ADD1B2" rx="11" ry="11" style="stroke:#181818;stroke-width:1.0;"/><path d="M4207.4731,136.3236 Q4206.8921,136.6224 4206.2529,136.7719 Q4205.6138,136.9213 4204.9082,136.9213 Q4202.4014,136.9213 4201.0815,135.2694 Q4199.7617,133.6176 4199.7617,130.4965 Q4199.7617,127.3671 4201.0815,125.7152 Q4202.4014,124.0634 4204.9082,124.0634 Q4205.6138,124.0634 4206.2612,124.2128 Q4206.9087,124.3622 4207.4731,124.661 L4207.4731,127.3837 Q4206.8423,126.8026 4206.2488,126.5328 Q4205.6553,126.2631 4205.0244,126.2631 Q4203.6797,126.2631 4202.9949,127.3297 Q4202.3101,128.3964 4202.3101,130.4965 Q4202.3101,132.5883 4202.9949,133.6549 Q4203.6797,134.7216 4205.0244,134.7216 Q4205.6553,134.7216 4206.2488,134.4518 Q4206.8423,134.182 4207.4731,133.601 Z " fill="#000000"/><text fill="#000000" font-family="sans-serif" font-size="12" font-style="italic" lengthAdjust="spacing" textLength="42" x="4227.5" y="126.4716">&#171;static&#187;</text><text fill="#000000" font-family="sans-serif" font-size="14" lengthAdjust="spacing" textLength="59" x="4219" y="142.538">Program</text><line style="stroke:#181818;stroke-width:0.5;" x1="4191" x2="4280" y1="150.4911" y2="150.4911"/><line style="stroke:#181818;stroke-width:0.5;" x1="4191" x2="4280" y1="158.4911" y2="158.4911"/></g><!--reverse link Objeto to Poligono--><g id="link_Objeto_Poligono"><path codeLine="5" d="M1769.6232,159.3089 C1486.7132,186.6089 979.31,242.43 537.5,329.35 C492.6,338.18 444.16,350.16 400.68,361.84 " fill="none" id="Objeto-backto-Poligono" style="stroke:#181818;stroke-width:1.0;"/><polygon fill="none" points="1787.54,157.58,1769.0469,153.3367,1770.1995,165.2812,1787.54,157.58" style="stroke:#181818;stroke-width:1.0;"/></g><!--reverse link Objeto to SrPalito--><g id="link_Objeto_SrPalito"><path codeLine="9" d="M1769.7401,162.0662 C1544.3701,188.2362 1190.97,238.97 881.5,329.35 C875.75,331.03 869.92,332.85 864.08,334.77 " fill="none" id="Objeto-backto-SrPalito" style="stroke:#181818;stroke-width:1.0;"/><polygon fill="none" points="1787.62,159.99,1769.0481,156.1063,1770.4322,168.0262,1787.62,159.99" style="stroke:#181818;stroke-width:1.0;"/></g><!--reverse link GameWindow to Mundo--><g id="link_GameWindow_Mundo"><path codeLine="4" d="M4092.5,180.48 C4092.5,227.69 4092.5,316.63 4092.5,370.12 " fill="none" id="GameWindow-backto-Mundo" style="stroke:#181818;stroke-width:1.0;"/><polygon fill="none" points="4092.5,162.48,4086.5,180.48,4098.5,180.48,4092.5,162.48" style="stroke:#181818;stroke-width:1.0;"/></g><!--reverse link Objeto to Spline--><g id="link_Objeto_Spline"><path codeLine="8" d="M1770.1462,197.1321 C1633.0862,233.6321 1466.45,279.61 1305.5,329.35 C1297.42,331.85 1289.18,334.44 1280.87,337.1 " fill="none" id="Objeto-backto-Spline" style="stroke:#181818;stroke-width:1.0;"/><polygon fill="none" points="1787.54,192.5,1768.6022,191.3342,1771.6902,202.93,1787.54,192.5" style="stroke:#181818;stroke-width:1.0;"/></g><!--reverse link Objeto to Retangulo--><g id="link_Objeto_Retangulo"><path codeLine="6" d="M1787.2744,279.9088 C1743.5344,309.8988 1714.56,329.77 1679.79,353.62 " fill="none" id="Objeto-backto-Retangulo" style="stroke:#181818;stroke-width:1.0;"/><polygon fill="none" points="1802.12,269.73,1783.8815,274.9602,1790.6673,284.8573,1802.12,269.73" style="stroke:#181818;stroke-width:1.0;"/></g><!--link Objeto to PrimitiveType--><g id="link_Objeto_PrimitiveType"><path codeLine="16" d="M1992.5,269.73 C1992.5,311.44 1992.5,347.25 1992.5,372.34 " fill="none" id="Objeto-to-PrimitiveType" style="stroke:#181818;stroke-width:1.0;"/><polygon fill="#181818" points="1992.5,378.34,1996.5,369.34,1992.5,373.34,1988.5,369.34,1992.5,378.34" style="stroke:#181818;stroke-width:1.0;"/><text fill="#000000" font-family="sans-serif" font-size="13" lengthAdjust="spacing" textLength="83" x="1899.3844" y="368.1511">PrimitivaTipo</text></g><!--link Objeto to Shader--><g id="link_Objeto_Shader"><path codeLine="17" d="M2060.6,269.73 C2082.36,311.44 2101.3963,347.9296 2114.4763,373.0196 " fill="none" id="Objeto-to-Shader" style="stroke:#181818;stroke-width:1.0;"/><polygon fill="#181818" points="2117.25,378.34,2116.6365,368.5103,2114.9386,373.9063,2109.5426,372.2085,2117.25,378.34" style="stroke:#181818;stroke-width:1.0;"/><text fill="#000000" font-family="sans-serif" font-size="13" lengthAdjust="spacing" textLength="84" x="2053.3671" y="368.0892">ShaderObjeto</text></g><!--reverse link Objeto to Ponto--><g id="link_Objeto_Ponto"><path codeLine="7" d="M2202.8159,279.7311 C2242.6959,306.3811 2267.67,323.07 2301.1,345.41 " fill="none" id="Objeto-backto-Ponto" style="stroke:#181818;stroke-width:1.0;"/><polygon fill="none" points="2187.85,269.73,2199.4822,284.7197,2206.1496,274.7424,2187.85,269.73" style="stroke:#181818;stroke-width:1.0;"/></g><!--reverse link Objeto to Circulo--><g id="link_Objeto_Circulo"><path codeLine="7" d="M2214.5525,204.7796 C2363.1225,248.6696 2545.4,302.52 2690.64,345.43 " fill="none" id="Objeto-backto-Circulo" style="stroke:#181818;stroke-width:1.0;"/><polygon fill="none" points="2197.29,199.68,2212.8526,210.5338,2216.2524,199.0255,2197.29,199.68" style="stroke:#181818;stroke-width:1.0;"/></g><!--reverse link Objeto to SegReta--><g id="link_Objeto_SegReta"><path codeLine="6" d="M2215.217,168.0968 C2452.717,200.2768 2837.51,256.92 3179.5,329.35 C3212.83,336.41 3248.19,344.95 3282.02,353.66 " fill="none" id="Objeto-backto-SegReta" style="stroke:#181818;stroke-width:1.0;"/><polygon fill="none" points="2197.38,165.68,2214.4114,174.0425,2216.0226,162.1512,2197.38,165.68" style="stroke:#181818;stroke-width:1.0;"/></g><!--SRC=[XOuz2y8m54LtVuNkaegJYqEfHHoinOfhQTfdI4dU2_aG_VTMH1mISBtdtVFkGcAlmW1pbjMaf20aPe9MiyKFDBRkbFGnE0OS4kT6IOGeFeFlK0GL5qvyX8Iz9aoaXRHzIjA0U7-8BPQ4xNIK4n-p7V0WCWI_OQkCLUMb80kvCSihM2S9j_S9iDmvq5mzS- -jvC63-oyhzcsrRii7Q3Dj_HeEUFiCVm40]--></g></svg>